<?xml version="1.0" encoding="UTF-8" standalone="no"?><!DOCTYPE svg PUBLIC "-//W3C//DTD SVG 1.1//EN" "http://www.w3.org/Graphics/SVG/1.1/DTD/svg11.dtd"><svg width="100%" height="100%" viewBox="0 0 3255 4709" version="1.1" xmlns="http://www.w3.org/2000/svg" xmlns:xlink="http://www.w3.org/1999/xlink" xml:space="preserve" style="fill-rule:evenodd;clip-rule:evenodd;stroke-linejoin:round;stroke-miterlimit:1.41421;"><g><path d="M411.331,72.842c-100.057,-0.053 -305.399,-94.048 -345.813,-66.735c-29.631,20.026 86.158,196.92 83.05,221.14c-12.55,18.502 -85.477,0.703 -83.031,20.773c3.827,31.394 105.992,98.348 105.992,98.348c0,0 -57.66,143.464 -56.631,209.442c0.979,62.806 53.472,146.014 54.129,189.238c0.6,39.404 -1.223,109.417 -1.223,109.417c0,0 78.313,88.423 151.323,94.632c106.415,9.049 211.134,-79.684 284.264,-109.445c55.059,-22.407 147.275,-54.158 177.033,-34.323c49.69,36.964 45.723,211.335 73.247,274.267c-0.072,43.373 -23.553,73.079 -34.834,84.535c-121.376,-25.759 -182.443,-74.79 -267.198,-128.15c-38.913,-24.498 -315.311,-81.13 -406.704,-76.869c-58.641,2.734 -137.48,74.281 -143.08,113.649c-10.691,75.151 78.797,118.866 94.724,124.907c36.756,13.941 168.524,-7.584 168.524,-7.584l39.487,25.867c28.362,15.423 58.932,-3.192 122.384,40.837c173.734,120.553 245.258,218.054 494.803,322.039c67.054,27.941 218.879,-5.477 218.879,-5.477c15.937,57.425 31.05,88.186 50.686,265.406c-42.369,396.013 -62.027,367.055 -70.529,516.174c-3.118,54.705 -64.364,51.431 -109.546,54.547c-37.789,2.606 -137.451,79.215 -140.336,180.813c-3.443,121.304 373.618,50.144 373.618,50.144c0,0 313.639,36.152 471.226,39.001c294.577,5.326 902.762,-19.874 958.985,1.204c252.761,134.91 324.222,544.946 21.059,1319.82c-188.446,371.789 -440.247,532.327 -971.391,282.955c-58.55,-27.489 -177.004,25.968 -186.068,116.927c-5.31,53.279 32.67,195.396 186.984,227.313c279.646,57.839 527.652,187.369 989.669,-95.745c305.651,-187.297 526.06,-966.727 534.966,-1408.64c5.802,-287.924 -90.132,-478.117 -248.407,-814.253c-84.059,-279.107 4.132,-494.578 -106.042,-806.33c-83.791,-237.096 -285.765,-550.379 -547.068,-743.354c-305.141,-225.351 -776.859,-441.773 -1066.83,-539.012c-163.293,-129.371 -505.422,-163.888 -620.027,-171.227c-89.783,-5.75 -138.25,23.806 -250.276,23.746Zm1087.18,1948.08c-21.583,152.796 -138.454,361.193 -156.81,428.144c-2.343,14.426 56.492,-12.131 78.074,-13.515c17.193,-1.103 41.55,8.684 51.419,5.212c43.395,-15.266 208.163,-76.038 206.878,-102.504c-82.7,-112.538 -158.51,-257.133 -179.561,-317.337Z" style="fill:#efeef0;"/></g></svg>