<?xml version="1.0" encoding="UTF-8" standalone="no"?>
<!DOCTYPE svg PUBLIC "-//W3C//DTD SVG 1.1//EN" "http://www.w3.org/Graphics/SVG/1.1/DTD/svg11.dtd">
<svg width="100%" height="100%" viewBox="0 0 130 130" version="1.1" xmlns="http://www.w3.org/2000/svg" xmlns:xlink="http://www.w3.org/1999/xlink" xml:space="preserve" style="fill-rule:evenodd;clip-rule:evenodd;stroke-linejoin:round;stroke-miterlimit:1.41421;">
    <g transform="matrix(1,0,0,1,-2700,-900)">
        <g id="Small-Bug" transform="matrix(0.511454,0,0,0.17732,2252.84,896.392)">
            <rect x="874.298" y="20.35" width="254.177" height="733.138" style="fill:none;"/>
            <clipPath id="_clip1">
                <rect x="874.298" y="20.35" width="254.177" height="733.138"/>
            </clipPath>
            <g clip-path="url(#_clip1)">
                <g transform="matrix(0.845701,0,0,2.41449,50.8004,-470.427)">
                    <rect x="973.746" y="203.263" width="300.552" height="303.641" style="fill:rgb(87,6,140);"/>
                </g>
                <g transform="matrix(0.255642,0,0,0.916423,923.962,20.3501)">
                    <g>
                        <rect x="400" y="0" width="400" height="800" style="fill:rgb(239,238,240);"/>
                    </g>
                </g>
                <g transform="matrix(0.742681,0,0,2.14216,629.922,-164.694)">
                    <g>
                        <path d="M403.363,165.732C393.09,165.726 372.007,156.076 367.857,158.88C364.815,160.936 376.703,179.098 376.384,181.585C375.096,183.485 367.608,181.657 367.859,183.718C368.252,186.941 378.742,193.816 378.742,193.816C378.742,193.816 372.822,208.545 372.927,215.32C373.028,221.768 378.417,230.311 378.485,234.749C378.546,238.795 378.359,245.983 378.359,245.983C378.359,245.983 386.4,255.062 393.896,255.699C404.822,256.628 415.574,247.518 423.082,244.462C428.735,242.162 438.203,238.902 441.259,240.938C446.36,244.734 445.953,262.637 448.779,269.098C448.772,273.551 446.361,276.601 445.203,277.778C432.74,275.133 426.471,270.099 417.769,264.62C413.773,262.105 385.395,256.29 376.011,256.728C369.99,257.008 361.896,264.354 361.321,268.396C360.223,276.112 369.411,280.601 371.046,281.221C374.82,282.652 388.349,280.442 388.349,280.442L392.403,283.098C395.315,284.682 398.454,282.77 404.969,287.291C422.807,299.668 430.15,309.679 455.772,320.356C462.656,323.224 478.245,319.793 478.245,319.793C479.881,325.689 481.433,328.848 483.449,347.043C479.099,387.703 477.08,384.73 476.207,400.04C475.887,405.657 469.599,405.321 464.96,405.641C461.08,405.908 450.847,413.774 450.551,424.205C450.198,436.66 488.912,429.354 488.912,429.354C488.912,429.354 521.114,433.065 537.294,433.358C567.539,433.905 629.983,431.317 635.755,433.482C661.707,447.333 669.044,489.433 637.917,568.991C618.569,607.164 592.716,623.647 538.182,598.043C532.171,595.221 520.009,600.709 519.078,610.048C518.533,615.519 522.432,630.11 538.276,633.387C566.988,639.326 592.452,652.625 639.888,623.557C671.27,604.327 693.9,524.3 694.815,478.928C695.41,449.366 685.56,429.838 669.31,395.326C660.679,366.67 669.734,344.547 658.422,312.538C649.819,288.195 629.082,256.029 602.253,236.216C570.924,213.079 522.491,190.858 492.719,180.874C475.953,167.591 440.826,164.047 429.059,163.294C419.841,162.703 414.865,165.738 403.363,165.732ZM514.987,365.746C512.771,381.434 500.771,402.831 498.886,409.705C498.646,411.186 504.687,408.46 506.903,408.318C508.668,408.204 511.168,409.209 512.182,408.853C516.637,407.285 533.554,401.046 533.423,398.328C524.932,386.774 517.148,371.928 514.987,365.746Z" style="fill:rgb(239,238,240);"/>
                    </g>
                </g>
                <g id="small-caps-variant" transform="matrix(1.18158,0,0,1.15897,-209.767,-89.392)">
                    <g transform="matrix(0.317721,0,0,0.916423,986.112,-28.7943)">
                        <text x="82.204px" y="459.482px" style="font-family:'Montserrat-SemiBold', 'Montserrat';font-weight:600;font-size:96px;fill:rgb(87,6,140);">NYU</text>
                    </g>
                    <g transform="matrix(0.317721,0,0,0.916423,985.959,54.4829)">
                        <text x="82.204px" y="459.482px" style="font-family:'Montserrat-SemiBold', 'Montserrat';font-weight:600;font-size:96px;fill:rgb(87,6,140);">ph<tspan x="211.708px 265.18px " y="459.482px 459.482px ">ys</tspan>ics</text>
                    </g>
                </g>
            </g>
        </g>
    </g>
</svg>
